<?xml version="1.0" encoding="utf-8"?>
<!-- Generator: Adobe Illustrator 16.0.0, SVG Export Plug-In . SVG Version: 6.00 Build 0)  -->
<!DOCTYPE svg PUBLIC "-//W3C//DTD SVG 1.1//EN" "http://www.w3.org/Graphics/SVG/1.1/DTD/svg11.dtd">
<svg version="1.1" id="Layer_1" xmlns="http://www.w3.org/2000/svg" xmlns:xlink="http://www.w3.org/1999/xlink" x="0px" y="0px"
	 width="982.196px" height="166.141px" viewBox="0 0 982.196 166.141" enable-background="new 0 0 982.196 166.141"
	 xml:space="preserve">
<polygon points="27.582,135.255 33.297,135.255 44.555,153.395 44.623,153.395 44.623,135.255 48.936,135.255 48.936,159.487 
	43.459,159.487 31.963,140.765 31.895,140.765 31.895,159.487 27.582,159.487 "/>
<path d="M69.707,152.573H57.215c0.172,2.326,2.293,4.039,4.689,4.039c2.053,0,3.424-0.823,4.348-2.123l2.736,2.188
	c-1.607,2.19-3.936,3.289-7.047,3.289c-5.068,0-8.83-3.254-8.83-8.591c0-5.308,3.729-8.797,8.691-8.797
	c4.584,0,7.939,2.978,7.939,8.898C69.742,151.854,69.742,152.195,69.707,152.573 M65.635,149.629c0-2.121-1.197-3.969-3.865-3.969
	c-2.432,0-4.383,1.675-4.555,3.969H65.635z"/>
<polygon points="71.385,143.059 75.832,143.059 79.256,154.83 79.326,154.83 82.85,143.059 87.23,143.059 90.791,154.83 
	90.859,154.83 94.346,143.059 98.625,143.059 92.943,159.487 88.77,159.487 85.037,147.987 84.971,147.987 81.275,159.487 
	77.1,159.487 "/>
<path d="M127.475,140.938c-1.266-1.747-3.561-2.5-5.51-2.5c-4.998,0-8.385,3.868-8.385,8.864c0,5.27,3.217,8.932,8.213,8.932
	c2.602,0,4.656-1.128,5.887-2.806l3.455,2.431c-2.123,2.669-5.27,4.243-9.375,4.243c-7.564,0-12.938-5.236-12.938-12.8
	c0-7.769,5.68-12.662,13.143-12.662c3.148,0,6.879,1.162,8.793,3.696L127.475,140.938z"/>
<path d="M148.795,149.219v10.269h-4.107v-9.037c0-1.951-0.408-4.346-3.043-4.346c-2.604,0-3.869,2.224-3.869,4.413v8.97h-4.107
	v-25.874h4.107v11.739h0.068c0.65-1.372,2.465-2.773,4.895-2.773C147.016,142.579,148.795,145.864,148.795,149.219"/>
<path d="M161.562,142.579c4.961,0,8.93,3.457,8.93,8.624c0,5.169-3.969,8.76-8.93,8.76c-4.963,0-8.934-3.591-8.934-8.76
	C152.629,146.036,156.6,142.579,161.562,142.579 M161.562,156.541c3.25,0,4.756-2.771,4.756-5.338c0-2.567-1.506-5.27-4.756-5.27
	c-3.254,0-4.76,2.702-4.76,5.27C156.803,153.77,158.309,156.541,161.562,156.541"/>
<path d="M176.547,135.017c1.508,0,2.67,1.059,2.67,2.463c0,1.403-1.162,2.466-2.67,2.466c-1.502,0-2.6-1.165-2.6-2.466
	C173.947,136.181,175.045,135.017,176.547,135.017 M174.531,143.059h4.104v16.427h-4.104V143.059z"/>
<path d="M194.857,147.61c-0.65-0.926-2.055-1.609-3.389-1.609c-3.012,0-4.518,2.706-4.518,5.27c0,2.568,1.537,5.271,4.656,5.271
	c1.264,0,2.668-0.512,3.453-1.47l2.568,2.602c-1.369,1.472-3.627,2.294-6.059,2.294c-4.859,0-8.898-3.22-8.898-8.696
	c0-5.337,3.973-8.691,8.797-8.691c2.395,0,4.893,0.959,6.193,2.567L194.857,147.61z"/>
<path d="M215.971,152.573h-12.488c0.168,2.326,2.291,4.039,4.688,4.039c2.053,0,3.424-0.823,4.35-2.123l2.736,2.188
	c-1.609,2.19-3.936,3.289-7.051,3.289c-5.066,0-8.83-3.254-8.83-8.591c0-5.308,3.73-8.797,8.693-8.797
	c4.586,0,7.938,2.978,7.938,8.898C216.006,151.854,216.006,152.195,215.971,152.573 M211.9,149.629c0-2.121-1.197-3.969-3.867-3.969
	c-2.43,0-4.383,1.675-4.551,3.969H211.9z"/>
<path d="M228.975,147.44c-0.719-0.96-2.086-1.78-3.592-1.78c-1.301,0-2.635,0.478-2.635,1.78c0,1.265,1.266,1.607,3.557,2.155
	c2.432,0.581,5.307,1.675,5.307,4.892c0,4.007-3.252,5.478-6.848,5.478c-2.529,0-5.164-0.958-6.74-2.704l2.703-2.53
	c0.891,1.162,2.43,2.051,4.211,2.051c1.199,0,2.635-0.479,2.635-1.949c0-1.368-1.268-1.78-3.764-2.361
	c-2.432-0.583-4.861-1.574-4.861-4.655c0-3.662,3.287-5.236,6.537-5.236c2.363,0,4.824,0.822,6.162,2.498L228.975,147.44z"/>
<path d="M244.375,146.344h-3.115v-3.285h3.115v-2.429c0-3.938,1.541-7.429,6.643-7.429c0.887,0,1.469,0.07,2.084,0.239l-0.273,3.491
	c-0.447-0.137-0.992-0.239-1.574-0.239c-2.361,0-2.771,2.054-2.771,3.697v2.669h3.797v3.285h-3.797v13.142h-4.107V146.344z"/>
<path d="M262.787,142.579c4.961,0,8.932,3.457,8.932,8.624c0,5.169-3.971,8.76-8.932,8.76c-4.963,0-8.934-3.591-8.934-8.76
	C253.854,146.036,257.824,142.579,262.787,142.579 M262.787,156.541c3.248,0,4.756-2.771,4.756-5.338c0-2.567-1.508-5.27-4.756-5.27
	c-3.254,0-4.758,2.702-4.758,5.27C258.029,153.77,259.533,156.541,262.787,156.541"/>
<path d="M275.688,143.059h3.936v2.738h0.072c0.887-1.884,2.635-3.218,4.789-3.218c0.309,0,0.717,0.033,0.992,0.103v3.766
	c-0.549-0.139-0.889-0.173-1.268-0.173c-3.695,0-4.414,3.216-4.414,4.416v8.797h-4.107V143.059z"/>
<polygon points="301.938,148.979 292.832,135.255 298.102,135.255 304.197,145.455 310.355,135.255 315.352,135.255 
	306.248,148.979 306.248,159.487 301.938,159.487 "/>
<path d="M321.955,142.579c4.963,0,8.934,3.457,8.934,8.624c0,5.169-3.971,8.76-8.934,8.76c-4.961,0-8.932-3.591-8.932-8.76
	C313.023,146.036,316.994,142.579,321.955,142.579 M321.955,156.541c3.252,0,4.76-2.771,4.76-5.338c0-2.567-1.508-5.27-4.76-5.27
	s-4.756,2.702-4.756,5.27C317.199,153.77,318.703,156.541,321.955,156.541"/>
<path d="M349.849,159.485h-3.898v-2.635h-0.068c-0.719,1.644-2.672,3.114-5.103,3.114c-4.279,0-6.057-3.285-6.057-6.64v-10.267
	h4.107v9.104c0,1.949,0.443,4.378,3.08,4.378c2.601,0,3.833-2.257,3.833-4.449v-9.033h4.105V159.485z"/>
<path d="M354.776,143.059h3.936v2.738h0.07c0.889-1.884,2.635-3.218,4.789-3.218c0.309,0,0.719,0.033,0.992,0.103v3.766
	c-0.547-0.139-0.889-0.173-1.268-0.173c-3.695,0-4.412,3.216-4.412,4.416v8.797h-4.107V143.059z"/>
<polygon points="375.995,135.255 380.306,135.255 380.306,145.043 391.634,145.043 391.634,135.255 395.944,135.255 
	395.944,159.487 391.634,159.487 391.634,148.739 380.306,148.739 380.306,159.487 375.995,159.487 "/>
<path d="M409.05,142.579c4.965,0,8.934,3.457,8.934,8.624c0,5.169-3.969,8.76-8.934,8.76c-4.961,0-8.93-3.591-8.93-8.76
	C400.12,146.036,404.089,142.579,409.05,142.579 M409.05,156.541c3.254,0,4.76-2.771,4.76-5.338c0-2.567-1.506-5.27-4.76-5.27
	c-3.25,0-4.756,2.702-4.756,5.27C404.294,153.77,405.8,156.541,409.05,156.541"/>
<path d="M447.62,149.219v10.269h-4.105v-9.104c0-1.953-0.445-4.38-3.08-4.38c-2.568,0-3.629,2.396-3.629,4.515v8.97H432.7v-9.926
	c0-2.021-0.957-3.559-3.045-3.559c-2.465,0-3.594,2.256-3.594,4.447v9.037h-4.105v-16.429h3.898v2.635h0.068
	c0.721-1.607,2.465-3.114,5.1-3.114c2.533,0,4.209,1.267,5.133,3.114c1.098-1.984,2.945-3.114,5.408-3.114
	C445.841,142.579,447.62,145.864,447.62,149.219"/>
<path d="M468.05,152.573h-12.49c0.17,2.326,2.293,4.039,4.688,4.039c2.053,0,3.422-0.823,4.348-2.123l2.736,2.188
	c-1.607,2.19-3.936,3.289-7.047,3.289c-5.066,0-8.83-3.254-8.83-8.591c0-5.308,3.729-8.797,8.691-8.797
	c4.586,0,7.939,2.978,7.939,8.898C468.085,151.854,468.085,152.195,468.05,152.573 M463.978,149.629
	c0-2.121-1.197-3.969-3.869-3.969c-2.428,0-4.379,1.675-4.549,3.969H463.978z"/>
<polygon points="0.869,13.621 0.869,40.213 27.619,40.213 27.619,114.96 59.123,114.96 59.123,40.213 86.154,40.213 86.154,13.621 
	"/>
<path d="M484.804,61.927c-5.896-5.075-14.158-8.331-23.955-10.795c-2.67-0.647-5.295-1.529-7.85-2.615
	c-2.121-0.896-4.473-1.923-5.85-3.862c-0.842-1.226-0.777-2.743-0.092-4.003c0.807-1.501,2.197-2.146,3.771-2.557
	c1.717-0.423,4.012-0.339,5.742,0c1.934,0.375,3.814,0.96,5.656,1.668c4.254,1.649,8.234,3.957,11.963,6.543l3.193,2.229
	l15.189-22.001l-2.842-2.252c-10.312-8.295-23.137-12.995-37.828-12.995h-0.119c-10.48,0.011-19.775,3.092-26.527,8.831
	c-6.75,5.686-10.768,14.044-10.768,23.748c0.012,0.012,0,0.079,0.012,0.18v0.201c0,0.084-0.012,0.206-0.012,0.32
	c-0.02,10.438,3.846,17.688,10.158,22.604c6.33,4.953,14.877,7.708,24.469,10.04c2.562,0.641,5.201,1.222,7.604,2.414
	c2.314,1.12,5.215,3.155,5.215,6.075v0.193c-0.033,1.43-0.49,2.427-1.953,3.391c-1.469,0.963-4.066,1.754-8.018,1.754
	c-6.732,0-14.27-3.927-22.543-10.722l-2.959-2.429l-17.273,20.66l2.768,2.537c12.227,10.896,27.773,16.262,43.156,16.262
	c10.932,0,20.611-2.8,27.697-8.558c7.105-5.718,11.266-14.402,11.266-24.88v-0.604C494.095,74.013,490.687,67.007,484.804,61.927"/>
<polygon points="370.05,13.621 370.05,59.213 335.391,13.621 310.693,13.621 310.693,114.96 342.197,114.96 342.197,67.506 
	378.343,114.96 401.558,114.96 401.558,13.621 "/>
<path d="M184.531,114.958l-18-36.699c7.473-4.224,13.213-11.12,15.41-19.676c0.824-3.109,1.15-6.48,1.15-9.725v-0.503v-0.067
	c0-9.592-3.119-18.036-9.143-24.039c-7.023-7.063-17.422-10.62-29.99-10.62H97.311v101.329h31.477V84.953h4.428
	c0.641,0,1.262-0.045,1.889-0.048l14.486,30.053H184.531z M128.787,39.821h10.404c4.529,0.146,7.639,1.005,9.506,2.504
	c1.859,1.484,2.92,3.74,2.92,7.324c-0.094,3.019-0.996,5.232-2.826,6.799c-1.814,1.574-4.785,2.606-9.213,2.718h-10.791V39.821z"/>
<polygon points="212.752,114.956 227.59,114.956 247.66,80.184 267.74,114.956 282.584,114.956 247.66,54.179 "/>
<polygon points="247.658,36.493 293.025,114.958 307.855,114.958 247.658,10.689 187.461,114.958 202.305,114.958 "/>
<polygon fill="#FFC20E" points="714.856,13.715 684.864,92.905 684.835,92.982 684.804,93.06 684.722,93.06 684.64,93.06 
	684.208,93.06 684.13,93.06 684.048,93.06 684.019,92.984 683.989,92.909 652.481,13.715 633.325,13.715 674.421,114.418 
	692.694,114.418 732.501,13.715 "/>
<path fill="#FFC20E" d="M860.171,22.499c-3.139-3.556-7.141-6.374-11.912-8.368c-4.781-1.994-10.535-3.01-17.096-3.01
	c-4.139,0-8.043,0.543-11.607,1.611c-3.562,1.068-6.816,2.516-9.672,4.3c-2.85,1.782-5.342,3.84-7.408,6.12
	c-2.064,2.277-3.688,4.655-4.824,7.073l-0.033,0.067l-0.029,0.071h-0.076c0,0,0.004-13.962,0-16.649l-15.838-0.12
	c0.008,3.276,0,100.704,0,100.704l16.387,0.121V65.365c0-5.767,0.621-11.095,1.846-15.844c1.225-4.76,3.129-8.936,5.66-12.404
	c2.529-3.47,5.834-6.19,9.816-8.072s8.781-2.834,14.266-2.834c7.967,0,13.92,2.504,17.701,7.444
	c3.76,4.92,5.668,11.735,5.668,20.252v60.513h16.387V52.176c0-6.001-0.758-11.616-2.26-16.688
	C865.649,30.436,863.304,26.065,860.171,22.499"/>
<path fill="#FFC20E" d="M902.571,161.646c7.816,3.268,16.824,4.925,26.777,4.925c11.227,0,20.449-1.728,27.408-5.135
	c6.957-3.407,12.459-7.722,16.359-12.827c3.902-5.106,6.562-10.791,7.91-16.89c1.354-6.12,2.039-11.96,2.039-17.361V14.856h-13.711
	v16.527v0.118v0.122h-0.119h-0.119h-0.432h-0.059h-0.062l-0.033-0.049l-0.035-0.049c-2.84-3.831-5.934-7.035-9.197-9.517
	c-3.27-2.485-6.619-4.464-9.943-5.883c-3.342-1.421-6.723-2.427-10.051-2.997c-3.355-0.565-6.561-0.854-9.525-0.854
	c-7.383,0-14.258,1.331-20.438,3.956c-6.178,2.632-11.574,6.337-16.041,11.019c-4.471,4.681-8.035,10.229-10.596,16.477
	c-2.557,6.25-3.852,13.093-3.852,20.331c0,7.245,1.371,14.085,4.068,20.33c2.693,6.24,6.436,11.676,11.123,16.151
	c4.688,4.472,10.27,8.038,16.586,10.59c6.312,2.557,13.195,3.852,20.436,3.852c7.246,0,14.232-1.441,20.76-4.28
	c6.514-2.832,12.121-7.72,16.662-14.53l0.037-0.054l0.033-0.049h0.064h0.062h0.432h0.119h0.119v0.116v0.119v18.056
	c0,5.438-0.691,10.63-2.053,15.436c-1.367,4.816-3.625,9.074-6.711,12.665c-3.096,3.595-7.211,6.475-12.236,8.556
	c-5.027,2.082-11.209,3.137-18.361,3.137c-8.16,0-15.686-1.711-22.357-5.081c-6.578-3.322-12.01-7.79-16.143-13.275l-10.186,10.81
	C887.661,153.342,894.817,158.402,902.571,161.646 M967.079,79.625c-1.939,4.74-4.744,8.852-8.334,12.23
	c-3.588,3.374-7.773,6.029-12.436,7.893c-4.658,1.866-9.643,2.812-14.816,2.812c-5.314,0-10.299-1.055-14.82-3.139
	c-4.521-2.08-8.525-4.918-11.895-8.438c-3.371-3.512-6.064-7.657-8-12.326c-1.939-4.661-2.922-9.717-2.922-15.028
	c0-5.308,0.982-10.367,2.922-15.032c1.936-4.665,4.629-8.811,8-12.326c3.369-3.514,7.373-6.35,11.895-8.434
	c4.529-2.084,9.52-3.141,14.82-3.141c5.879,0,11.266,1.055,16.008,3.137c4.732,2.081,8.809,4.922,12.115,8.439
	c3.307,3.523,5.852,7.675,7.574,12.332c1.719,4.664,2.596,9.721,2.596,15.024C969.925,69.511,969.013,74.894,967.079,79.625"/>
<path fill="#FFC20E" d="M603.866,32.55v81.868h16.389V32.491c-2.209,1.925-4.971,2.899-8.229,2.899
	C608.804,35.391,606.058,34.435,603.866,32.55"/>
<path fill="#FFC20E" d="M600.093,14.28c0,1.539,0.236,3.001,0.699,4.345l0.016,0.045l0.016,0.051l0.016,0.051l0.016,0.041
	c0.561,1.54,1.43,2.904,2.586,4.056c0.047,0.051,0.1,0.098,0.146,0.139c0.043,0.033,0.082,0.071,0.125,0.106l0.023,0.028
	l0.031,0.024l0.031,0.028l0.027,0.026c2.176,1.99,4.936,2.996,8.201,2.996c3.299,0,6.082-1.028,8.266-3.053l0.053-0.051l0.062-0.055
	c0.033-0.033,0.068-0.06,0.1-0.09c0.037-0.033,0.072-0.063,0.109-0.101c1.152-1.151,2.023-2.519,2.584-4.056l0.018-0.043
	l0.012-0.049l0.018-0.051l0.02-0.047c0.463-1.344,0.695-2.806,0.695-4.343c0-0.045-0.004-0.09-0.004-0.135h-23.857
	C600.101,14.19,600.093,14.235,600.093,14.28"/>
<path fill="#FFC20E" d="M746.579,32.521v81.896h16.387V32.52c-2.201,1.906-4.955,2.871-8.191,2.871
	C751.532,35.391,748.774,34.426,746.579,32.521"/>
<path fill="#FFC20E" d="M742.837,14.28c0,1.539,0.232,3.001,0.697,4.345l0.018,0.045l0.018,0.051l0.012,0.051l0.02,0.041
	c0.561,1.54,1.43,2.906,2.584,4.056c0.039,0.045,0.082,0.08,0.129,0.12c0.039,0.031,0.074,0.063,0.107,0.097l0.027,0.022l0.031,0.03
	l0.033,0.03l0.029,0.024c2.178,2.007,4.943,3.024,8.23,3.024c3.279,0,6.051-1.018,8.232-3.026l0.051-0.045l0.062-0.059
	c0.039-0.035,0.078-0.067,0.113-0.099c0.043-0.04,0.086-0.079,0.129-0.12c1.154-1.151,2.023-2.519,2.586-4.056l0.01-0.043
	l0.018-0.049l0.021-0.051l0.012-0.045c0.465-1.346,0.701-2.808,0.701-4.345c0-0.045-0.002-0.09-0.002-0.135h-23.863
	C742.841,14.19,742.837,14.235,742.837,14.28"/>
<polygon fill="#FFC20E" points="528.622,99.012 528.622,0.431 510.423,0.431 510.423,114.538 585.708,114.538 585.708,99.392 
	529.001,99.392 528.622,99.392 "/>
</svg>
